<?xml version="1.0" encoding="UTF-8" standalone="no"?>
<!DOCTYPE svg PUBLIC "-//W3C//DTD SVG 1.1//EN"
 "http://www.w3.org/Graphics/SVG/1.1/DTD/svg11.dtd">
<!-- Generated by graphviz version 2.38.0 (20140413.2041)
 -->
<!-- Title: %3 Pages: 1 -->
<svg width="1393pt" height="1336pt"
 viewBox="0.00 0.00 1393.00 1336.05" xmlns="http://www.w3.org/2000/svg" xmlns:xlink="http://www.w3.org/1999/xlink">
<g id="graph0" class="graph" transform="scale(1 1) rotate(0) translate(4 1332.05)">
<title>%3</title>
<polygon fill="white" stroke="none" points="-4,4 -4,-1332.05 1389,-1332.05 1389,4 -4,4"/>
<!-- 0 -->
<g id="node1" class="node"><title>0</title>
<ellipse fill="none" stroke="black" cx="18" cy="-840.053" rx="18" ry="18"/>
<text text-anchor="middle" x="18" y="-836.353" font-family="Times New Roman,serif" font-size="14.00">0</text>
</g>
<!-- 1 -->
<g id="node2" class="node"><title>1</title>
<ellipse fill="none" stroke="black" cx="555.498" cy="-1177.05" rx="18" ry="18"/>
<ellipse fill="none" stroke="black" cx="555.498" cy="-1177.05" rx="22" ry="22"/>
<text text-anchor="middle" x="555.498" y="-1173.35" font-family="Times New Roman,serif" font-size="14.00">1</text>
</g>
<!-- 0&#45;&gt;1 -->
<g id="edge8" class="edge"><title>0&#45;&gt;1</title>
<path fill="none" stroke="black" d="M18.9311,-858.18C19.7877,-886.009 25.3713,-939.453 54,-972.053 183.513,-1119.54 435.216,-1162.85 523.217,-1173.78"/>
<polygon fill="black" stroke="black" points="523.01,-1177.28 533.353,-1174.98 523.835,-1170.33 523.01,-1177.28"/>
<text text-anchor="middle" x="263" y="-1127.85" font-family="Times New Roman,serif" font-size="14.00">&quot;adipiscing / ε&quot;</text>
</g>
<!-- 2 -->
<g id="node3" class="node"><title>2</title>
<ellipse fill="none" stroke="black" cx="184" cy="-870.053" rx="18" ry="18"/>
<text text-anchor="middle" x="184" y="-866.353" font-family="Times New Roman,serif" font-size="14.00">2</text>
</g>
<!-- 0&#45;&gt;2 -->
<g id="edge7" class="edge"><title>0&#45;&gt;2</title>
<path fill="none" stroke="black" d="M35.9332,-843.151C64.2905,-848.338 121.623,-858.826 155.724,-865.064"/>
<polygon fill="black" stroke="black" points="155.447,-868.571 165.913,-866.928 156.706,-861.685 155.447,-868.571"/>
<text text-anchor="middle" x="101" y="-867.853" font-family="Times New Roman,serif" font-size="14.00">&quot;consectetur / ε&quot;</text>
</g>
<!-- 3 -->
<g id="node4" class="node"><title>3</title>
<ellipse fill="none" stroke="black" cx="184" cy="-816.053" rx="18" ry="18"/>
<text text-anchor="middle" x="184" y="-812.353" font-family="Times New Roman,serif" font-size="14.00">3</text>
</g>
<!-- 0&#45;&gt;3 -->
<g id="edge6" class="edge"><title>0&#45;&gt;3</title>
<path fill="none" stroke="black" d="M34.7008,-832.595C40.6219,-830.099 47.4988,-827.568 54,-826.053 88.4177,-818.033 129.252,-816.094 155.618,-815.791"/>
<polygon fill="black" stroke="black" points="155.653,-819.291 165.637,-815.747 155.622,-812.291 155.653,-819.291"/>
<text text-anchor="middle" x="101" y="-829.853" font-family="Times New Roman,serif" font-size="14.00">&quot;incididunt / ε&quot;</text>
</g>
<!-- 4 -->
<g id="node5" class="node"><title>4</title>
<ellipse fill="none" stroke="black" cx="184" cy="-950.053" rx="18" ry="18"/>
<text text-anchor="middle" x="184" y="-946.353" font-family="Times New Roman,serif" font-size="14.00">4</text>
</g>
<!-- 0&#45;&gt;4 -->
<g id="edge4" class="edge"><title>0&#45;&gt;4</title>
<path fill="none" stroke="black" d="M21.1849,-857.84C24.5999,-877.627 33.1377,-909.04 54,-926.053 82.8038,-949.543 127.291,-952.84 155.771,-952.142"/>
<polygon fill="black" stroke="black" points="155.994,-955.635 165.836,-951.712 155.696,-948.642 155.994,-955.635"/>
<text text-anchor="middle" x="101" y="-956.853" font-family="Times New Roman,serif" font-size="14.00">&quot;dolore / ε&quot;</text>
</g>
<!-- 0&#45;&gt;4 -->
<g id="edge5" class="edge"><title>0&#45;&gt;4</title>
<path fill="none" stroke="black" d="M27.866,-855.309C34.0523,-864.65 43.1325,-876.106 54,-883.053 90.3292,-906.277 111.671,-883.829 148,-907.053 155.811,-912.047 162.699,-919.369 168.252,-926.561"/>
<polygon fill="black" stroke="black" points="165.474,-928.694 174.134,-934.797 171.17,-924.625 165.474,-928.694"/>
<text text-anchor="middle" x="101" y="-910.853" font-family="Times New Roman,serif" font-size="14.00">&quot;labore / ε&quot;</text>
</g>
<!-- 5 -->
<g id="node6" class="node"><title>5</title>
<ellipse fill="none" stroke="black" cx="1363" cy="-409.053" rx="18" ry="18"/>
<ellipse fill="none" stroke="black" cx="1363" cy="-409.053" rx="22" ry="22"/>
<text text-anchor="middle" x="1363" y="-405.353" font-family="Times New Roman,serif" font-size="14.00">5</text>
</g>
<!-- 0&#45;&gt;5 -->
<g id="edge3" class="edge"><title>0&#45;&gt;5</title>
<path fill="none" stroke="black" d="M26.573,-823.969C46.3087,-784.687 103.37,-687.053 183,-687.053 183,-687.053 183,-687.053 881.997,-687.053 980.046,-687.053 1253.14,-741.856 1323,-673.053 1355.21,-641.322 1360.97,-504.48 1361.89,-441.278"/>
<polygon fill="black" stroke="black" points="1365.4,-441.121 1362.01,-431.082 1358.4,-441.042 1365.4,-441.121"/>
<text text-anchor="middle" x="662.497" y="-690.853" font-family="Times New Roman,serif" font-size="14.00">&quot;Loremconsectetur / ε&quot;</text>
</g>
<!-- 6 -->
<g id="node7" class="node"><title>6</title>
<ellipse fill="none" stroke="black" cx="780.997" cy="-435.053" rx="18" ry="18"/>
<text text-anchor="middle" x="780.997" y="-431.353" font-family="Times New Roman,serif" font-size="14.00">6</text>
</g>
<!-- 0&#45;&gt;6 -->
<g id="edge1" class="edge"><title>0&#45;&gt;6</title>
<path fill="none" stroke="black" d="M18.7487,-821.953C18.7498,-748.304 29.1224,-475.053 183,-475.053 183,-475.053 183,-475.053 556.498,-475.053 628.841,-475.053 712.323,-454.496 753.794,-442.856"/>
<polygon fill="black" stroke="black" points="754.984,-446.156 763.634,-440.039 753.057,-439.427 754.984,-446.156"/>
<text text-anchor="middle" x="367" y="-478.853" font-family="Times New Roman,serif" font-size="14.00">&quot;ipsum / ε&quot;</text>
</g>
<!-- 0&#45;&gt;6 -->
<g id="edge2" class="edge"><title>0&#45;&gt;6</title>
<path fill="none" stroke="black" d="M20.8248,-822.116C25.0047,-784.004 36.2976,-696.528 54,-673.053 93.0232,-621.307 118.189,-605.053 183,-605.053 183,-605.053 183,-605.053 556.498,-605.053 652.248,-605.053 732.631,-504.989 764.867,-458.401"/>
<polygon fill="black" stroke="black" points="767.954,-460.085 770.663,-449.842 762.158,-456.16 767.954,-460.085"/>
<text text-anchor="middle" x="367" y="-608.853" font-family="Times New Roman,serif" font-size="14.00">&quot;Lorem / ε&quot;</text>
</g>
<!-- 7 -->
<g id="node8" class="node"><title>7</title>
<ellipse fill="none" stroke="black" cx="780.997" cy="-1017.05" rx="18" ry="18"/>
<ellipse fill="none" stroke="black" cx="780.997" cy="-1017.05" rx="22" ry="22"/>
<text text-anchor="middle" x="780.997" y="-1013.35" font-family="Times New Roman,serif" font-size="14.00">7</text>
</g>
<!-- 1&#45;&gt;7 -->
<g id="edge12" class="edge"><title>1&#45;&gt;7</title>
<path fill="none" stroke="black" d="M573.689,-1164.42C580.834,-1159.25 589.252,-1153.27 596.997,-1148.05 654.15,-1109.53 673.34,-1107.04 727.997,-1065.05 738.094,-1057.3 748.538,-1047.95 757.394,-1039.58"/>
<polygon fill="black" stroke="black" points="759.937,-1041.99 764.718,-1032.53 755.085,-1036.94 759.937,-1041.99"/>
<text text-anchor="middle" x="662.497" y="-1151.85" font-family="Times New Roman,serif" font-size="14.00">&quot;eiusmod / ε&quot;</text>
</g>
<!-- 12 -->
<g id="node13" class="node"><title>12</title>
<ellipse fill="none" stroke="black" cx="973.997" cy="-995.053" rx="19.4965" ry="19.4965"/>
<text text-anchor="middle" x="973.997" y="-991.353" font-family="Times New Roman,serif" font-size="14.00">12</text>
</g>
<!-- 1&#45;&gt;12 -->
<g id="edge9" class="edge"><title>1&#45;&gt;12</title>
<path fill="none" stroke="black" d="M577.183,-1181.09C640.388,-1192.1 832.466,-1215.5 927.997,-1115.05 957.912,-1083.6 924.625,-1056.84 945.997,-1019.05 947.151,-1017.01 948.543,-1015.06 950.08,-1013.2"/>
<polygon fill="black" stroke="black" points="952.876,-1015.36 957.449,-1005.8 947.914,-1010.42 952.876,-1015.36"/>
<text text-anchor="middle" x="780.997" y="-1193.85" font-family="Times New Roman,serif" font-size="14.00">&quot;tempor / ε&quot;</text>
</g>
<!-- 1&#45;&gt;12 -->
<g id="edge10" class="edge"><title>1&#45;&gt;12</title>
<path fill="none" stroke="black" d="M564.943,-1197.22C571.581,-1210.26 582.193,-1226.21 596.997,-1234.05 662.005,-1268.48 873.9,-1288.9 927.997,-1239.05 964.068,-1205.81 924.093,-1062.94 945.997,-1019.05 947.148,-1016.75 948.627,-1014.56 950.297,-1012.52"/>
<polygon fill="black" stroke="black" points="952.825,-1014.94 957.407,-1005.39 947.868,-1010 952.825,-1014.94"/>
<text text-anchor="middle" x="780.997" y="-1272.85" font-family="Times New Roman,serif" font-size="14.00">&quot;sit / ε&quot;</text>
</g>
<!-- 18 -->
<g id="node19" class="node"><title>18</title>
<ellipse fill="none" stroke="black" cx="1155" cy="-881.053" rx="19.4968" ry="19.4968"/>
<ellipse fill="none" stroke="black" cx="1155" cy="-881.053" rx="23.4965" ry="23.4965"/>
<text text-anchor="middle" x="1155" y="-877.353" font-family="Times New Roman,serif" font-size="14.00">18</text>
</g>
<!-- 1&#45;&gt;18 -->
<g id="edge11" class="edge"><title>1&#45;&gt;18</title>
<path fill="none" stroke="black" d="M560.528,-1198.56C565.494,-1218.76 576,-1248.18 596.997,-1264.05 714.348,-1352.79 801.308,-1342.85 927.997,-1268.05 1063.93,-1187.79 1126.35,-991.67 1146.4,-913.748"/>
<polygon fill="black" stroke="black" points="1149.81,-914.54 1148.85,-903.989 1143.02,-912.837 1149.81,-914.54"/>
<text text-anchor="middle" x="880.997" y="-1316.85" font-family="Times New Roman,serif" font-size="14.00">&quot;amet / ε&quot;</text>
</g>
<!-- 8 -->
<g id="node9" class="node"><title>8</title>
<ellipse fill="none" stroke="black" cx="367" cy="-920.053" rx="18" ry="18"/>
<text text-anchor="middle" x="367" y="-916.353" font-family="Times New Roman,serif" font-size="14.00">8</text>
</g>
<!-- 2&#45;&gt;8 -->
<g id="edge14" class="edge"><title>2&#45;&gt;8</title>
<path fill="none" stroke="black" d="M200.906,-876.372C206.849,-878.624 213.687,-881.087 220,-883.053 261.135,-895.864 309.799,-907.512 339.261,-914.186"/>
<polygon fill="black" stroke="black" points="338.673,-917.641 349.196,-916.413 340.204,-910.811 338.673,-917.641"/>
<text text-anchor="middle" x="263" y="-910.853" font-family="Times New Roman,serif" font-size="14.00">&quot;tempor / ε&quot;</text>
</g>
<!-- 13 -->
<g id="node14" class="node"><title>13</title>
<ellipse fill="none" stroke="black" cx="555.498" cy="-907.053" rx="19.4968" ry="19.4968"/>
<ellipse fill="none" stroke="black" cx="555.498" cy="-907.053" rx="23.4965" ry="23.4965"/>
<text text-anchor="middle" x="555.498" y="-903.353" font-family="Times New Roman,serif" font-size="14.00">13</text>
</g>
<!-- 2&#45;&gt;13 -->
<g id="edge13" class="edge"><title>2&#45;&gt;13</title>
<path fill="none" stroke="black" d="M202.007,-869.718C239.639,-869.183 332.746,-868.989 410,-878.053 449.155,-882.648 493.521,-892.217 522.642,-899.108"/>
<polygon fill="black" stroke="black" points="522.103,-902.578 532.644,-901.512 523.738,-895.772 522.103,-902.578"/>
<text text-anchor="middle" x="367" y="-881.853" font-family="Times New Roman,serif" font-size="14.00">&quot;adipiscing / ε&quot;</text>
</g>
<!-- 9 -->
<g id="node10" class="node"><title>9</title>
<ellipse fill="none" stroke="black" cx="367" cy="-763.053" rx="18" ry="18"/>
<text text-anchor="middle" x="367" y="-759.353" font-family="Times New Roman,serif" font-size="14.00">9</text>
</g>
<!-- 3&#45;&gt;9 -->
<g id="edge16" class="edge"><title>3&#45;&gt;9</title>
<path fill="none" stroke="black" d="M197.245,-803.696C203.533,-798.059 211.624,-791.816 220,-788.053 258.651,-770.692 308.029,-765.323 338.314,-763.701"/>
<polygon fill="black" stroke="black" points="338.714,-767.187 348.553,-763.258 338.411,-760.193 338.714,-767.187"/>
<text text-anchor="middle" x="263" y="-791.853" font-family="Times New Roman,serif" font-size="14.00">&quot;tempor / ε&quot;</text>
</g>
<!-- 14 -->
<g id="node15" class="node"><title>14</title>
<ellipse fill="none" stroke="black" cx="555.498" cy="-796.053" rx="19.4968" ry="19.4968"/>
<ellipse fill="none" stroke="black" cx="555.498" cy="-796.053" rx="23.4965" ry="23.4965"/>
<text text-anchor="middle" x="555.498" y="-792.353" font-family="Times New Roman,serif" font-size="14.00">14</text>
</g>
<!-- 3&#45;&gt;14 -->
<g id="edge15" class="edge"><title>3&#45;&gt;14</title>
<path fill="none" stroke="black" d="M202.183,-816.17C251.09,-816.33 395.192,-815.613 514,-803.053 516.701,-802.768 519.494,-802.413 522.292,-802.014"/>
<polygon fill="black" stroke="black" points="522.96,-805.452 532.291,-800.434 521.867,-798.538 522.96,-805.452"/>
<text text-anchor="middle" x="367" y="-818.853" font-family="Times New Roman,serif" font-size="14.00">&quot;adipiscing / ε&quot;</text>
</g>
<!-- 10 -->
<g id="node11" class="node"><title>10</title>
<ellipse fill="none" stroke="black" cx="367" cy="-989.053" rx="19.4965" ry="19.4965"/>
<text text-anchor="middle" x="367" y="-985.353" font-family="Times New Roman,serif" font-size="14.00">10</text>
</g>
<!-- 4&#45;&gt;10 -->
<g id="edge18" class="edge"><title>4&#45;&gt;10</title>
<path fill="none" stroke="black" d="M201.704,-953.653C232.742,-960.34 299.612,-974.749 337.782,-982.973"/>
<polygon fill="black" stroke="black" points="337.22,-986.432 347.733,-985.117 338.694,-979.589 337.22,-986.432"/>
<text text-anchor="middle" x="263" y="-979.853" font-family="Times New Roman,serif" font-size="14.00">&quot;tempor / ε&quot;</text>
</g>
<!-- 15 -->
<g id="node16" class="node"><title>15</title>
<ellipse fill="none" stroke="black" cx="555.498" cy="-1059.05" rx="19.4968" ry="19.4968"/>
<ellipse fill="none" stroke="black" cx="555.498" cy="-1059.05" rx="23.4965" ry="23.4965"/>
<text text-anchor="middle" x="555.498" y="-1055.35" font-family="Times New Roman,serif" font-size="14.00">15</text>
</g>
<!-- 4&#45;&gt;15 -->
<g id="edge17" class="edge"><title>4&#45;&gt;15</title>
<path fill="none" stroke="black" d="M193.34,-965.74C199.424,-975.66 208.589,-987.914 220,-995.053 316.896,-1055.68 458.195,-1061.24 521.583,-1060.33"/>
<polygon fill="black" stroke="black" points="521.854,-1063.82 531.778,-1060.11 521.707,-1056.82 521.854,-1063.82"/>
<text text-anchor="middle" x="367" y="-1058.85" font-family="Times New Roman,serif" font-size="14.00">&quot;adipiscing / ε&quot;</text>
</g>
<!-- 11 -->
<g id="node12" class="node"><title>11</title>
<ellipse fill="none" stroke="black" cx="973.997" cy="-359.053" rx="19.4968" ry="19.4968"/>
<ellipse fill="none" stroke="black" cx="973.997" cy="-359.053" rx="23.4965" ry="23.4965"/>
<text text-anchor="middle" x="973.997" y="-355.353" font-family="Times New Roman,serif" font-size="14.00">11</text>
</g>
<!-- 6&#45;&gt;11 -->
<g id="edge19" class="edge"><title>6&#45;&gt;11</title>
<path fill="none" stroke="black" d="M798.67,-439.539C827.277,-446.241 886.621,-455.714 927.997,-432.053 943.837,-422.995 954.824,-405.878 961.975,-390.495"/>
<polygon fill="black" stroke="black" points="965.224,-391.799 965.94,-381.228 958.788,-389.045 965.224,-391.799"/>
<text text-anchor="middle" x="880.997" y="-451.853" font-family="Times New Roman,serif" font-size="14.00">&quot;dolore / ε&quot;</text>
</g>
<!-- 6&#45;&gt;11 -->
<g id="edge20" class="edge"><title>6&#45;&gt;11</title>
<path fill="none" stroke="black" d="M797.619,-427.47C807.788,-422.779 821.447,-416.933 833.997,-413.053 874.718,-400.464 889.258,-411.831 927.997,-394.053 935.047,-390.818 941.998,-386.283 948.25,-381.548"/>
<polygon fill="black" stroke="black" points="950.697,-384.07 956.285,-375.069 946.304,-378.621 950.697,-384.07"/>
<text text-anchor="middle" x="880.997" y="-416.853" font-family="Times New Roman,serif" font-size="14.00">&quot;labore / ε&quot;</text>
</g>
<!-- 6&#45;&gt;11 -->
<g id="edge21" class="edge"><title>6&#45;&gt;11</title>
<path fill="none" stroke="black" d="M790.725,-419.607C799.636,-405.433 814.858,-385.155 833.997,-375.053 867.096,-357.583 910.705,-355.346 940.182,-356.335"/>
<polygon fill="black" stroke="black" points="940.201,-359.839 950.357,-356.822 940.536,-352.847 940.201,-359.839"/>
<text text-anchor="middle" x="880.997" y="-378.853" font-family="Times New Roman,serif" font-size="14.00">&quot;incididunt / ε&quot;</text>
</g>
<!-- 6&#45;&gt;11 -->
<g id="edge22" class="edge"><title>6&#45;&gt;11</title>
<path fill="none" stroke="black" d="M785.603,-417.616C791.384,-394.696 805.141,-355.325 833.997,-338.053 867.674,-317.896 913.894,-331.352 943.607,-344.144"/>
<polygon fill="black" stroke="black" points="942.456,-347.465 953.009,-348.407 945.347,-341.09 942.456,-347.465"/>
<text text-anchor="middle" x="880.997" y="-341.853" font-family="Times New Roman,serif" font-size="14.00">&quot;consectetur / ε&quot;</text>
</g>
<!-- 7&#45;&gt;12 -->
<g id="edge24" class="edge"><title>7&#45;&gt;12</title>
<path fill="none" stroke="black" d="M803.017,-1018.15C831.593,-1019.2 884.163,-1019.54 927.997,-1011.05 934.046,-1009.88 940.375,-1008.04 946.312,-1006.02"/>
<polygon fill="black" stroke="black" points="947.632,-1009.26 955.814,-1002.53 945.22,-1002.69 947.632,-1009.26"/>
<text text-anchor="middle" x="880.997" y="-1022.85" font-family="Times New Roman,serif" font-size="14.00">&quot;sit / ε&quot;</text>
</g>
<!-- 7&#45;&gt;12 -->
<g id="edge25" class="edge"><title>7&#45;&gt;12</title>
<path fill="none" stroke="black" d="M800.03,-1005.91C809.713,-1000.57 822.081,-994.769 833.997,-992.053 871.559,-983.493 916.315,-986.773 944.694,-990.457"/>
<polygon fill="black" stroke="black" points="944.329,-993.94 954.719,-991.865 945.303,-987.008 944.329,-993.94"/>
<text text-anchor="middle" x="880.997" y="-995.853" font-family="Times New Roman,serif" font-size="14.00">&quot;tempor / ε&quot;</text>
</g>
<!-- 7&#45;&gt;18 -->
<g id="edge23" class="edge"><title>7&#45;&gt;18</title>
<path fill="none" stroke="black" d="M801.206,-1026.87C810.79,-1031.23 822.719,-1035.86 833.997,-1038.05 907.584,-1052.35 930.574,-1045.82 1002,-1023.05 1042.76,-1010.06 1057.72,-1012.13 1090,-984.053 1112.79,-964.224 1130.14,-934.261 1140.99,-911.756"/>
<polygon fill="black" stroke="black" points="1144.19,-913.163 1145.23,-902.619 1137.84,-910.212 1144.19,-913.163"/>
<text text-anchor="middle" x="973.997" y="-1043.85" font-family="Times New Roman,serif" font-size="14.00">&quot;amet / ε&quot;</text>
</g>
<!-- 8&#45;&gt;13 -->
<g id="edge26" class="edge"><title>8&#45;&gt;13</title>
<path fill="none" stroke="black" d="M385.211,-918.854C416.252,-916.69 482.078,-912.102 521.882,-909.327"/>
<polygon fill="black" stroke="black" points="522.154,-912.817 531.886,-908.63 521.667,-905.834 522.154,-912.817"/>
<text text-anchor="middle" x="471" y="-919.853" font-family="Times New Roman,serif" font-size="14.00">&quot;adipiscing / ε&quot;</text>
</g>
<!-- 9&#45;&gt;14 -->
<g id="edge27" class="edge"><title>9&#45;&gt;14</title>
<path fill="none" stroke="black" d="M385.108,-765.838C412.401,-770.313 467.466,-779.475 514,-788.053 516.683,-788.548 519.463,-789.072 522.252,-789.607"/>
<polygon fill="black" stroke="black" points="521.753,-793.075 532.237,-791.55 523.09,-786.204 521.753,-793.075"/>
<text text-anchor="middle" x="471" y="-791.853" font-family="Times New Roman,serif" font-size="14.00">&quot;adipiscing / ε&quot;</text>
</g>
<!-- 10&#45;&gt;15 -->
<g id="edge28" class="edge"><title>10&#45;&gt;15</title>
<path fill="none" stroke="black" d="M386.562,-990.203C415.353,-992.635 471.847,-1000.04 514,-1022.05 520.352,-1025.37 526.469,-1029.94 531.941,-1034.73"/>
<polygon fill="black" stroke="black" points="529.766,-1037.49 539.447,-1041.79 534.563,-1032.39 529.766,-1037.49"/>
<text text-anchor="middle" x="471" y="-1025.85" font-family="Times New Roman,serif" font-size="14.00">&quot;adipiscing / ε&quot;</text>
</g>
<!-- 11&#45;&gt;5 -->
<g id="edge29" class="edge"><title>11&#45;&gt;5</title>
<path fill="none" stroke="black" d="M994.845,-347.242C1002.57,-342.854 1011.58,-337.99 1020,-334.053 1030.78,-329.011 1208.29,-259.229 1220,-257.053 1265,-248.689 1286.83,-228.993 1323,-257.053 1341.77,-271.617 1353.06,-336.891 1358.36,-377.017"/>
<polygon fill="black" stroke="black" points="1354.91,-377.635 1359.63,-387.117 1361.85,-376.757 1354.91,-377.635"/>
<text text-anchor="middle" x="1155" y="-302.853" font-family="Times New Roman,serif" font-size="14.00">&quot;culpa / ε&quot;</text>
</g>
<!-- 11&#45;&gt;5 -->
<g id="edge30" class="edge"><title>11&#45;&gt;5</title>
<path fill="none" stroke="black" d="M988.062,-339.903C996.412,-328.456 1007.91,-314.05 1020,-303.053 1054.64,-271.527 1063.5,-259.705 1108,-245.053 1198.79,-215.153 1248.23,-179.494 1323,-239.053 1344.27,-255.996 1354.89,-332.839 1359.33,-377.196"/>
<polygon fill="black" stroke="black" points="1355.85,-377.567 1360.28,-387.19 1362.82,-376.903 1355.85,-377.567"/>
<text text-anchor="middle" x="1155" y="-248.853" font-family="Times New Roman,serif" font-size="14.00">&quot;ullamco / ε&quot;</text>
</g>
<!-- 11&#45;&gt;5 -->
<g id="edge31" class="edge"><title>11&#45;&gt;5</title>
<path fill="none" stroke="black" d="M979.824,-335.989C985.836,-311.845 998.089,-273.917 1020,-248.053 1049.66,-213.039 1063.84,-206.523 1108,-194.053 1200.12,-168.04 1252.53,-142.253 1323,-207.053 1347.42,-229.512 1356.93,-325.761 1360.32,-376.87"/>
<polygon fill="black" stroke="black" points="1356.83,-377.284 1360.95,-387.048 1363.82,-376.85 1356.83,-377.284"/>
<text text-anchor="middle" x="1155" y="-197.853" font-family="Times New Roman,serif" font-size="14.00">&quot;exercitation / ε&quot;</text>
</g>
<!-- 11&#45;&gt;5 -->
<g id="edge32" class="edge"><title>11&#45;&gt;5</title>
<path fill="none" stroke="black" d="M975.696,-335.602C977.882,-301.317 986.523,-237.132 1020,-196.053 1047.75,-161.999 1065.29,-161.339 1108,-151.053 1201.04,-128.644 1253.38,-97.3841 1323,-163.053 1353.34,-191.674 1360.1,-316.858 1361.59,-376.816"/>
<polygon fill="black" stroke="black" points="1358.09,-376.953 1361.8,-386.876 1365.09,-376.803 1358.09,-376.953"/>
<text text-anchor="middle" x="1155" y="-154.853" font-family="Times New Roman,serif" font-size="14.00">&quot;veniam / ε&quot;</text>
</g>
<!-- 11&#45;&gt;5 -->
<g id="edge33" class="edge"><title>11&#45;&gt;5</title>
<path fill="none" stroke="black" d="M977.503,-335.678C983.043,-287.772 997.639,-180.556 1020,-152.053 1103.57,-45.5069 1225.18,-26.4042 1323,-120.053 1359.18,-154.701 1362.73,-308.505 1362.47,-376.519"/>
<polygon fill="black" stroke="black" points="1358.97,-376.643 1362.4,-386.667 1365.97,-376.691 1358.97,-376.643"/>
<text text-anchor="middle" x="1155" y="-81.8534" font-family="Times New Roman,serif" font-size="14.00">&quot;adipiscing / ε&quot;</text>
</g>
<!-- 11&#45;&gt;5 -->
<g id="edge34" class="edge"><title>11&#45;&gt;5</title>
<path fill="none" stroke="black" d="M976.186,-335.6C979.571,-276.958 990.96,-125.816 1020,-86.0534 1069.14,-18.7607 1118.92,-34.5709 1202,-41.0534 1256.27,-45.2885 1285.37,-20.7146 1323,-60.0534 1344.7,-82.7403 1356.72,-294.844 1360.6,-376.877"/>
<polygon fill="black" stroke="black" points="1357.1,-377.06 1361.06,-386.888 1364.09,-376.737 1357.1,-377.06"/>
<text text-anchor="middle" x="1155" y="-44.8534" font-family="Times New Roman,serif" font-size="14.00">&quot;sitdeserunt / ε&quot;</text>
</g>
<!-- 11&#45;&gt;5 -->
<g id="edge35" class="edge"><title>11&#45;&gt;5</title>
<path fill="none" stroke="black" d="M974.87,-335.57C975.012,-268.429 979.083,-77.6805 1020,-34.0534 1075.6,25.2371 1120.93,-10.057 1202,-16.0534 1256.22,-20.0644 1285.41,5.22902 1323,-34.0534 1346.51,-58.6287 1357.55,-290.521 1360.87,-376.866"/>
<polygon fill="black" stroke="black" points="1357.38,-377.256 1361.26,-387.118 1364.38,-376.994 1357.38,-377.256"/>
<text text-anchor="middle" x="1155" y="-19.8534" font-family="Times New Roman,serif" font-size="14.00">&quot;sitmollit / ε&quot;</text>
</g>
<!-- 11&#45;&gt;5 -->
<g id="edge36" class="edge"><title>11&#45;&gt;5</title>
<path fill="none" stroke="black" d="M975.537,-382.838C977.393,-441.435 985.48,-590.363 1020,-623.053 1069.02,-669.488 1271.52,-689.754 1323,-646.053 1353.45,-620.204 1360.16,-500.319 1361.62,-441.616"/>
<polygon fill="black" stroke="black" points="1365.12,-441.475 1361.83,-431.403 1358.12,-441.328 1365.12,-441.475"/>
<text text-anchor="middle" x="1155" y="-673.853" font-family="Times New Roman,serif" font-size="14.00">&quot;sitproident / ε&quot;</text>
</g>
<!-- 11&#45;&gt;5 -->
<g id="edge37" class="edge"><title>11&#45;&gt;5</title>
<path fill="none" stroke="black" d="M976.838,-382.385C981.218,-431.886 993.9,-545.107 1020,-572.053 1083.66,-637.795 1129.14,-610.085 1220,-621.053 1265.44,-626.54 1287.82,-650.349 1323,-621.053 1350.02,-598.545 1358.39,-494.795 1360.92,-441.243"/>
<polygon fill="black" stroke="black" points="1364.42,-441.382 1361.36,-431.24 1357.43,-441.079 1364.42,-441.382"/>
<text text-anchor="middle" x="1155" y="-623.853" font-family="Times New Roman,serif" font-size="14.00">&quot;sitofficia / ε&quot;</text>
</g>
<!-- 11&#45;&gt;5 -->
<g id="edge38" class="edge"><title>11&#45;&gt;5</title>
<path fill="none" stroke="black" d="M978.256,-382.448C983.124,-409.796 994.6,-455.12 1020,-485.053 1085.77,-562.574 1121.58,-570.573 1220,-596.053 1264.31,-607.527 1287.48,-624.93 1323,-596.053 1346.56,-576.896 1356.37,-489.438 1360.04,-441.212"/>
<polygon fill="black" stroke="black" points="1363.55,-441.214 1360.78,-430.99 1356.57,-440.714 1363.55,-441.214"/>
<text text-anchor="middle" x="1155" y="-595.853" font-family="Times New Roman,serif" font-size="14.00">&quot;sitnostrud / ε&quot;</text>
</g>
<!-- 16 -->
<g id="node17" class="node"><title>16</title>
<ellipse fill="none" stroke="black" cx="1155" cy="-466.053" rx="19.4965" ry="19.4965"/>
<text text-anchor="middle" x="1155" y="-462.353" font-family="Times New Roman,serif" font-size="14.00">16</text>
</g>
<!-- 11&#45;&gt;16 -->
<g id="edge41" class="edge"><title>11&#45;&gt;16</title>
<path fill="none" stroke="black" d="M995.052,-370.486C1018.09,-383.676 1056.96,-406.113 1090,-426.053 1103.14,-433.985 1117.65,-443.033 1129.53,-450.515"/>
<polygon fill="black" stroke="black" points="1127.71,-453.506 1138.04,-455.887 1131.45,-447.588 1127.71,-453.506"/>
<text text-anchor="middle" x="1055" y="-429.853" font-family="Times New Roman,serif" font-size="14.00">&quot;sit / ε&quot;</text>
</g>
<!-- 11&#45;&gt;16 -->
<g id="edge42" class="edge"><title>11&#45;&gt;16</title>
<path fill="none" stroke="black" d="M981.344,-381.49C987.888,-400.384 1000,-426.578 1020,-441.053 1050.76,-463.328 1095.62,-467.499 1124.81,-467.511"/>
<polygon fill="black" stroke="black" points="1125.22,-471.005 1135.17,-467.342 1125.11,-464.006 1125.22,-471.005"/>
<text text-anchor="middle" x="1055" y="-469.853" font-family="Times New Roman,serif" font-size="14.00">&quot;tempor / ε&quot;</text>
</g>
<!-- 17 -->
<g id="node18" class="node"><title>17</title>
<ellipse fill="none" stroke="black" cx="1155" cy="-350.053" rx="19.4965" ry="19.4965"/>
<text text-anchor="middle" x="1155" y="-346.353" font-family="Times New Roman,serif" font-size="14.00">17</text>
</g>
<!-- 11&#45;&gt;17 -->
<g id="edge39" class="edge"><title>11&#45;&gt;17</title>
<path fill="none" stroke="black" d="M995.557,-348.92C1003.06,-345.739 1011.73,-342.645 1020,-341.053 1055.97,-334.125 1098.27,-339.093 1125.58,-343.964"/>
<polygon fill="black" stroke="black" points="1125.13,-347.441 1135.61,-345.87 1126.44,-340.564 1125.13,-347.441"/>
<text text-anchor="middle" x="1055" y="-344.853" font-family="Times New Roman,serif" font-size="14.00">&quot;et / ε&quot;</text>
</g>
<!-- 11&#45;&gt;17 -->
<g id="edge40" class="edge"><title>11&#45;&gt;17</title>
<path fill="none" stroke="black" d="M997.926,-358.91C1021.15,-358.657 1058.1,-357.963 1090,-356.053 1101.65,-355.356 1114.46,-354.227 1125.54,-353.136"/>
<polygon fill="black" stroke="black" points="1125.94,-356.613 1135.54,-352.116 1125.23,-349.649 1125.94,-356.613"/>
<text text-anchor="middle" x="1055" y="-362.853" font-family="Times New Roman,serif" font-size="14.00">&quot;ut / ε&quot;</text>
</g>
<!-- 12&#45;&gt;18 -->
<g id="edge43" class="edge"><title>12&#45;&gt;18</title>
<path fill="none" stroke="black" d="M990.882,-984.937C1021.3,-965.565 1088.11,-923.012 1126.12,-898.808"/>
<polygon fill="black" stroke="black" points="1128.12,-901.686 1134.67,-893.362 1124.36,-895.781 1128.12,-901.686"/>
<text text-anchor="middle" x="1055" y="-968.853" font-family="Times New Roman,serif" font-size="14.00">&quot;amet / ε&quot;</text>
</g>
<!-- 13&#45;&gt;7 -->
<g id="edge47" class="edge"><title>13&#45;&gt;7</title>
<path fill="none" stroke="black" d="M563.844,-929.361C570.172,-945.077 580.869,-965.333 596.997,-977.053 645.159,-1012.05 669.877,-992.137 727.997,-1005.05 734.924,-1006.59 742.361,-1008.29 749.383,-1009.9"/>
<polygon fill="black" stroke="black" points="748.733,-1013.34 759.265,-1012.19 750.311,-1006.52 748.733,-1013.34"/>
<text text-anchor="middle" x="662.497" y="-1008.85" font-family="Times New Roman,serif" font-size="14.00">&quot;eiusmod / ε&quot;</text>
</g>
<!-- 13&#45;&gt;12 -->
<g id="edge44" class="edge"><title>13&#45;&gt;12</title>
<path fill="none" stroke="black" d="M569.741,-925.96C576.799,-934.503 586.244,-943.834 596.997,-949.053 685.002,-991.767 718.696,-960.954 815.997,-971.053 865.792,-976.222 878.776,-973.91 927.997,-983.053 933.661,-984.106 939.658,-985.502 945.363,-986.969"/>
<polygon fill="black" stroke="black" points="944.618,-990.393 955.185,-989.627 946.447,-983.636 944.618,-990.393"/>
<text text-anchor="middle" x="780.997" y="-974.853" font-family="Times New Roman,serif" font-size="14.00">&quot;tempor / ε&quot;</text>
</g>
<!-- 13&#45;&gt;12 -->
<g id="edge45" class="edge"><title>13&#45;&gt;12</title>
<path fill="none" stroke="black" d="M579.13,-906.349C612.094,-905.69 675.145,-905.818 727.997,-914.053 819.086,-928.247 842.947,-933.481 927.997,-969.053 934.82,-971.907 941.887,-975.599 948.342,-979.3"/>
<polygon fill="black" stroke="black" points="946.884,-982.505 957.263,-984.631 950.475,-976.497 946.884,-982.505"/>
<text text-anchor="middle" x="780.997" y="-933.853" font-family="Times New Roman,serif" font-size="14.00">&quot;sit / ε&quot;</text>
</g>
<!-- 13&#45;&gt;18 -->
<g id="edge46" class="edge"><title>13&#45;&gt;18</title>
<path fill="none" stroke="black" d="M579.183,-904.575C584.985,-904.007 591.217,-903.453 596.997,-903.053 795.827,-889.32 1035.22,-883.445 1121.24,-881.673"/>
<polygon fill="black" stroke="black" points="1121.49,-885.168 1131.42,-881.467 1121.35,-878.17 1121.49,-885.168"/>
<text text-anchor="middle" x="880.997" y="-894.853" font-family="Times New Roman,serif" font-size="14.00">&quot;amet / ε&quot;</text>
</g>
<!-- 14&#45;&gt;7 -->
<g id="edge51" class="edge"><title>14&#45;&gt;7</title>
<path fill="none" stroke="black" d="M572.942,-812.512C580.258,-819.778 589.009,-828.392 596.997,-836.053 654.416,-891.125 674.203,-899.435 727.997,-958.053 736.773,-967.617 737.531,-971.213 745.997,-981.053 749.711,-985.371 753.78,-989.865 757.771,-994.155"/>
<polygon fill="black" stroke="black" points="755.367,-996.707 764.778,-1001.57 760.456,-991.9 755.367,-996.707"/>
<text text-anchor="middle" x="662.497" y="-961.853" font-family="Times New Roman,serif" font-size="14.00">&quot;eiusmod / ε&quot;</text>
</g>
<!-- 14&#45;&gt;12 -->
<g id="edge48" class="edge"><title>14&#45;&gt;12</title>
<path fill="none" stroke="black" d="M577.826,-788.262C641.212,-766.627 830.114,-713.407 927.997,-808.053 950.323,-829.641 963.962,-918.585 969.751,-965.605"/>
<polygon fill="black" stroke="black" points="966.305,-966.262 970.962,-975.778 973.256,-965.434 966.305,-966.262"/>
<text text-anchor="middle" x="780.997" y="-760.853" font-family="Times New Roman,serif" font-size="14.00">&quot;tempor / ε&quot;</text>
</g>
<!-- 14&#45;&gt;12 -->
<g id="edge49" class="edge"><title>14&#45;&gt;12</title>
<path fill="none" stroke="black" d="M579.189,-795.795C651.527,-795.435 875.053,-798.06 927.997,-843.053 963.631,-873.337 971.786,-930.386 973.241,-965.327"/>
<polygon fill="black" stroke="black" points="969.744,-965.5 973.501,-975.406 976.742,-965.32 969.744,-965.5"/>
<text text-anchor="middle" x="780.997" y="-812.853" font-family="Times New Roman,serif" font-size="14.00">&quot;sit / ε&quot;</text>
</g>
<!-- 14&#45;&gt;18 -->
<g id="edge50" class="edge"><title>14&#45;&gt;18</title>
<path fill="none" stroke="black" d="M569.066,-776.414C576.079,-767.268 585.685,-757.274 596.997,-752.053 730.618,-690.385 786.325,-703.219 927.997,-743.053 1008.98,-765.823 1089.66,-826.548 1129.09,-859.336"/>
<polygon fill="black" stroke="black" points="1126.96,-862.119 1136.87,-865.884 1131.47,-856.765 1126.96,-862.119"/>
<text text-anchor="middle" x="880.997" y="-746.853" font-family="Times New Roman,serif" font-size="14.00">&quot;amet / ε&quot;</text>
</g>
<!-- 15&#45;&gt;7 -->
<g id="edge55" class="edge"><title>15&#45;&gt;7</title>
<path fill="none" stroke="black" d="M578.184,-1051.42C584.222,-1049.48 590.819,-1047.53 596.997,-1046.05 649.685,-1033.5 712.231,-1024.91 748.874,-1020.51"/>
<polygon fill="black" stroke="black" points="749.411,-1023.97 758.934,-1019.33 748.594,-1017.02 749.411,-1023.97"/>
<text text-anchor="middle" x="662.497" y="-1049.85" font-family="Times New Roman,serif" font-size="14.00">&quot;eiusmod / ε&quot;</text>
</g>
<!-- 15&#45;&gt;12 -->
<g id="edge52" class="edge"><title>15&#45;&gt;12</title>
<path fill="none" stroke="black" d="M573.288,-1075.05C580.109,-1080.54 588.404,-1086.06 596.997,-1089.05 666.45,-1113.27 866.651,-1129.64 927.997,-1089.05 950.012,-1074.49 961.549,-1046 967.402,-1024.18"/>
<polygon fill="black" stroke="black" points="970.818,-1024.94 969.773,-1014.4 964.015,-1023.29 970.818,-1024.94"/>
<text text-anchor="middle" x="780.997" y="-1117.85" font-family="Times New Roman,serif" font-size="14.00">&quot;tempor / ε&quot;</text>
</g>
<!-- 15&#45;&gt;12 -->
<g id="edge53" class="edge"><title>15&#45;&gt;12</title>
<path fill="none" stroke="black" d="M578.813,-1063.28C638.757,-1073.52 806.932,-1094.84 927.997,-1038.05 937.975,-1033.37 947.146,-1025.6 954.569,-1017.93"/>
<polygon fill="black" stroke="black" points="957.25,-1020.19 961.374,-1010.43 952.064,-1015.48 957.25,-1020.19"/>
<text text-anchor="middle" x="780.997" y="-1079.85" font-family="Times New Roman,serif" font-size="14.00">&quot;sit / ε&quot;</text>
</g>
<!-- 15&#45;&gt;18 -->
<g id="edge54" class="edge"><title>15&#45;&gt;18</title>
<path fill="none" stroke="black" d="M558.982,-1082.35C562.85,-1106.92 572.613,-1145.05 596.997,-1167.05 670.402,-1233.28 721.676,-1235.68 815.997,-1206.05 957.618,-1161.56 993.934,-1128.23 1090,-1015.05 1115.81,-984.636 1133.81,-942.026 1144,-913.08"/>
<polygon fill="black" stroke="black" points="1147.37,-914.048 1147.28,-903.454 1140.74,-911.791 1147.37,-914.048"/>
<text text-anchor="middle" x="880.997" y="-1203.85" font-family="Times New Roman,serif" font-size="14.00">&quot;amet / ε&quot;</text>
</g>
<!-- 16&#45;&gt;5 -->
<g id="edge56" class="edge"><title>16&#45;&gt;5</title>
<path fill="none" stroke="black" d="M1171.22,-454.987C1183.71,-446.491 1202.16,-435.204 1220,-429.053 1256.68,-416.404 1301.33,-411.744 1330.65,-410.034"/>
<polygon fill="black" stroke="black" points="1330.9,-413.525 1340.71,-409.528 1330.55,-406.534 1330.9,-413.525"/>
<text text-anchor="middle" x="1271.5" y="-432.853" font-family="Times New Roman,serif" font-size="14.00">&quot;culpa / ε&quot;</text>
</g>
<!-- 16&#45;&gt;5 -->
<g id="edge57" class="edge"><title>16&#45;&gt;5</title>
<path fill="none" stroke="black" d="M1166.56,-482.042C1183.67,-507.828 1215.97,-555.947 1220,-558.053 1260.57,-579.253 1286.76,-586.026 1323,-558.053 1341.41,-543.842 1352.8,-480.145 1358.22,-440.777"/>
<polygon fill="black" stroke="black" points="1361.69,-441.231 1359.53,-430.859 1354.75,-440.315 1361.69,-441.231"/>
<text text-anchor="middle" x="1271.5" y="-580.853" font-family="Times New Roman,serif" font-size="14.00">&quot;ullamco / ε&quot;</text>
</g>
<!-- 16&#45;&gt;5 -->
<g id="edge58" class="edge"><title>16&#45;&gt;5</title>
<path fill="none" stroke="black" d="M1167.91,-480.771C1179.59,-493.919 1198.7,-512.268 1220,-520.053 1262.99,-535.769 1285.65,-546.52 1323,-520.053 1347.9,-502.409 1357.02,-467.549 1360.29,-441.58"/>
<polygon fill="black" stroke="black" points="1363.8,-441.727 1361.34,-431.421 1356.83,-441.009 1363.8,-441.727"/>
<text text-anchor="middle" x="1271.5" y="-540.853" font-family="Times New Roman,serif" font-size="14.00">&quot;exercitation / ε&quot;</text>
</g>
<!-- 16&#45;&gt;5 -->
<g id="edge59" class="edge"><title>16&#45;&gt;5</title>
<path fill="none" stroke="black" d="M1173.1,-473.945C1205.08,-487.431 1275.03,-510.808 1323,-482.053 1338.16,-472.962 1347.76,-455.746 1353.64,-440.315"/>
<polygon fill="black" stroke="black" points="1357.06,-441.13 1356.98,-430.536 1350.43,-438.864 1357.06,-441.13"/>
<text text-anchor="middle" x="1271.5" y="-499.853" font-family="Times New Roman,serif" font-size="14.00">&quot;veniam / ε&quot;</text>
</g>
<!-- 16&#45;&gt;5 -->
<g id="edge60" class="edge"><title>16&#45;&gt;5</title>
<path fill="none" stroke="black" d="M1174.64,-464.987C1212.47,-462.597 1296.89,-456.062 1323,-444.053 1329.18,-441.209 1335.08,-437.038 1340.33,-432.558"/>
<polygon fill="black" stroke="black" points="1343.07,-434.789 1348.01,-425.412 1338.3,-429.666 1343.07,-434.789"/>
<text text-anchor="middle" x="1271.5" y="-465.853" font-family="Times New Roman,serif" font-size="14.00">&quot;adipiscing / ε&quot;</text>
</g>
<!-- 17&#45;&gt;5 -->
<g id="edge61" class="edge"><title>17&#45;&gt;5</title>
<path fill="none" stroke="black" d="M1172,-340.225C1181.61,-333.71 1193.58,-324.464 1202,-314.053 1213.49,-299.831 1204.49,-286.752 1220,-277.053 1258.81,-252.775 1286.33,-249.651 1323,-277.053 1353.48,-299.83 1361.13,-345.338 1362.56,-376.49"/>
<polygon fill="black" stroke="black" points="1359.07,-376.945 1362.83,-386.849 1366.07,-376.761 1359.07,-376.945"/>
<text text-anchor="middle" x="1271.5" y="-280.853" font-family="Times New Roman,serif" font-size="14.00">&quot;velit / ε&quot;</text>
</g>
<!-- 17&#45;&gt;5 -->
<g id="edge62" class="edge"><title>17&#45;&gt;5</title>
<path fill="none" stroke="black" d="M1173.87,-355.314C1186.67,-359.025 1204.35,-364.031 1220,-368.053 1265.52,-379.753 1278.38,-377.268 1323,-392.053 1326.39,-393.18 1329.9,-394.489 1333.36,-395.871"/>
<polygon fill="black" stroke="black" points="1332.25,-399.203 1342.83,-399.87 1334.98,-392.754 1332.25,-399.203"/>
<text text-anchor="middle" x="1271.5" y="-395.853" font-family="Times New Roman,serif" font-size="14.00">&quot;voluptate / ε&quot;</text>
</g>
<!-- 17&#45;&gt;5 -->
<g id="edge63" class="edge"><title>17&#45;&gt;5</title>
<path fill="none" stroke="black" d="M1173.92,-344.649C1206.04,-336.056 1274.58,-322.778 1323,-349.053 1335.06,-355.6 1343.97,-367.669 1350.21,-379.275"/>
<polygon fill="black" stroke="black" points="1347.12,-380.917 1354.65,-388.37 1353.41,-377.848 1347.12,-380.917"/>
<text text-anchor="middle" x="1271.5" y="-352.853" font-family="Times New Roman,serif" font-size="14.00">&quot;reprehenderit / ε&quot;</text>
</g>
<!-- 17&#45;&gt;5 -->
<g id="edge64" class="edge"><title>17&#45;&gt;5</title>
<path fill="none" stroke="black" d="M1171.11,-338.928C1183.53,-330.519 1201.96,-319.663 1220,-315.053 1264.35,-303.718 1284.93,-289.632 1323,-315.053 1343.58,-328.797 1353.31,-355.645 1357.91,-377.141"/>
<polygon fill="black" stroke="black" points="1354.51,-377.991 1359.78,-387.182 1361.39,-376.711 1354.51,-377.991"/>
<text text-anchor="middle" x="1271.5" y="-318.853" font-family="Times New Roman,serif" font-size="14.00">&quot;commodo / ε&quot;</text>
</g>
<!-- 18&#45;&gt;5 -->
<g id="edge65" class="edge"><title>18&#45;&gt;5</title>
<path fill="none" stroke="black" d="M1178.57,-878.392C1215.54,-872.724 1288.32,-855.804 1323,-808.053 1344.39,-778.593 1356.87,-530.729 1360.71,-441.172"/>
<polygon fill="black" stroke="black" points="1364.21,-441.199 1361.14,-431.061 1357.22,-440.905 1364.21,-441.199"/>
<text text-anchor="middle" x="1271.5" y="-873.853" font-family="Times New Roman,serif" font-size="14.00">&quot;et / ε&quot;</text>
</g>
<!-- 18&#45;&gt;5 -->
<g id="edge66" class="edge"><title>18&#45;&gt;5</title>
<path fill="none" stroke="black" d="M1167.19,-860.87C1178.75,-841.139 1198.15,-810.954 1220,-789.053 1259.45,-749.514 1294.12,-764.863 1323,-717.053 1350.7,-671.179 1358.9,-510.721 1361.18,-441.379"/>
<polygon fill="black" stroke="black" points="1364.68,-441.167 1361.49,-431.064 1357.69,-440.952 1364.68,-441.167"/>
<text text-anchor="middle" x="1271.5" y="-792.853" font-family="Times New Roman,serif" font-size="14.00">&quot;ut / ε&quot;</text>
</g>
</g>
</svg>
