<?xml version="1.0" encoding="UTF-8" standalone="no"?>
<!DOCTYPE svg PUBLIC "-//W3C//DTD SVG 1.1//EN"
 "http://www.w3.org/Graphics/SVG/1.1/DTD/svg11.dtd">
<!-- Generated by graphviz version 2.43.0 (0)
 -->
<!-- Title: %3 Pages: 1 -->
<svg width="1382pt" height="865pt"
 viewBox="0.00 0.00 1382.27 864.76" xmlns="http://www.w3.org/2000/svg" xmlns:xlink="http://www.w3.org/1999/xlink">
<g id="graph0" class="graph" transform="scale(1 1) rotate(0) translate(4 860.76)">
<title>%3</title>
<polygon fill="white" stroke="transparent" points="-4,4 -4,-860.76 1378.27,-860.76 1378.27,4 -4,4"/>
<!-- 0 -->
<g id="node1" class="node">
<title>0</title>
<ellipse fill="none" stroke="black" cx="18" cy="-252.76" rx="18" ry="18"/>
<text text-anchor="middle" x="18" y="-248.56" font-family="Times,serif" font-size="14.00">0</text>
</g>
<!-- 1 -->
<g id="node2" class="node">
<title>1</title>
<ellipse fill="none" stroke="black" cx="774.2" cy="-362.76" rx="18" ry="18"/>
<text text-anchor="middle" x="774.2" y="-358.56" font-family="Times,serif" font-size="14.00">1</text>
</g>
<!-- 0&#45;&gt;1 -->
<g id="edge1" class="edge">
<title>0&#45;&gt;1</title>
<path fill="none" stroke="black" d="M33.52,-262.29C61.1,-279.44 123.49,-313.76 181.28,-313.76 181.28,-313.76 181.28,-313.76 553.51,-313.76 625.23,-313.76 707.03,-338.94 747.59,-353.2"/>
<polygon fill="black" stroke="black" points="746.62,-356.57 757.22,-356.65 748.98,-349.98 746.62,-356.57"/>
<text text-anchor="middle" x="365.4" y="-316.56" font-family="Times,serif" font-size="14.00">&quot;ipsum / ε&quot;</text>
</g>
<!-- 0&#45;&gt;1 -->
<g id="edge2" class="edge">
<title>0&#45;&gt;1</title>
<path fill="none" stroke="black" d="M26.13,-269.03C32.1,-281.07 41.63,-297.14 54,-307.76 100.9,-348.01 119.48,-363.76 181.28,-363.76 181.28,-363.76 181.28,-363.76 553.51,-363.76 622.84,-363.76 704.46,-363.25 745.98,-362.96"/>
<polygon fill="black" stroke="black" points="746.14,-366.46 756.11,-362.89 746.09,-359.46 746.14,-366.46"/>
<text text-anchor="middle" x="365.4" y="-366.56" font-family="Times,serif" font-size="14.00">&quot;Lorem / ε&quot;</text>
</g>
<!-- 2 -->
<g id="node3" class="node">
<title>2</title>
<ellipse fill="none" stroke="black" cx="1352.27" cy="-471.76" rx="18" ry="18"/>
<ellipse fill="none" stroke="black" cx="1352.27" cy="-471.76" rx="22" ry="22"/>
<text text-anchor="middle" x="1352.27" y="-467.56" font-family="Times,serif" font-size="14.00">2</text>
</g>
<!-- 0&#45;&gt;2 -->
<g id="edge3" class="edge">
<title>0&#45;&gt;2</title>
<path fill="none" stroke="black" d="M19.96,-270.74C25.69,-369.61 59.51,-842.76 181.28,-842.76 181.28,-842.76 181.28,-842.76 1144.81,-842.76 1219.49,-842.76 1258.79,-880.89 1312.27,-828.76 1335.34,-806.27 1346.58,-587.37 1350.05,-503.89"/>
<polygon fill="black" stroke="black" points="1353.56,-503.85 1350.46,-493.71 1346.56,-503.56 1353.56,-503.85"/>
<text text-anchor="middle" x="657.31" y="-845.56" font-family="Times,serif" font-size="14.00">&quot;Loremconsectetur / ε&quot;</text>
</g>
<!-- 3 -->
<g id="node4" class="node">
<title>3</title>
<ellipse fill="none" stroke="black" cx="182.28" cy="-166.76" rx="18" ry="18"/>
<text text-anchor="middle" x="182.28" y="-162.56" font-family="Times,serif" font-size="14.00">3</text>
</g>
<!-- 0&#45;&gt;3 -->
<g id="edge4" class="edge">
<title>0&#45;&gt;3</title>
<path fill="none" stroke="black" d="M34.9,-246.42C40.84,-244.17 47.68,-241.71 54,-239.76 94.38,-227.27 111.45,-240.7 146.28,-216.76 155.45,-210.45 162.98,-200.91 168.68,-191.84"/>
<polygon fill="black" stroke="black" points="171.78,-193.48 173.76,-183.07 165.72,-189.97 171.78,-193.48"/>
<text text-anchor="middle" x="100.14" y="-242.56" font-family="Times,serif" font-size="14.00">&quot;dolore / ε&quot;</text>
</g>
<!-- 0&#45;&gt;3 -->
<g id="edge5" class="edge">
<title>0&#45;&gt;3</title>
<path fill="none" stroke="black" d="M25.49,-236.26C31.17,-224 40.62,-207.89 54,-198.76 88.57,-175.13 106.03,-191.3 146.28,-179.76 149.46,-178.84 152.76,-177.78 156.01,-176.66"/>
<polygon fill="black" stroke="black" points="157.22,-179.94 165.42,-173.23 154.83,-173.36 157.22,-179.94"/>
<text text-anchor="middle" x="100.14" y="-201.56" font-family="Times,serif" font-size="14.00">&quot;labore / ε&quot;</text>
</g>
<!-- 0&#45;&gt;3 -->
<g id="edge6" class="edge">
<title>0&#45;&gt;3</title>
<path fill="none" stroke="black" d="M20.12,-234.74C22.54,-213.24 30.14,-178.14 54,-161.76 83.9,-141.22 127.75,-149.05 155.38,-157.33"/>
<polygon fill="black" stroke="black" points="154.53,-160.74 165.12,-160.47 156.68,-154.07 154.53,-160.74"/>
<text text-anchor="middle" x="100.14" y="-164.56" font-family="Times,serif" font-size="14.00">&quot;incididunt / ε&quot;</text>
</g>
<!-- 0&#45;&gt;3 -->
<g id="edge7" class="edge">
<title>0&#45;&gt;3</title>
<path fill="none" stroke="black" d="M18.06,-234.57C17.75,-206.94 21.79,-155.02 54,-130.76 86.76,-106.08 108.5,-114.79 146.28,-130.76 153.18,-133.67 159.4,-138.69 164.61,-144.07"/>
<polygon fill="black" stroke="black" points="162.29,-146.75 171.49,-152.01 167.58,-142.16 162.29,-146.75"/>
<text text-anchor="middle" x="100.14" y="-133.56" font-family="Times,serif" font-size="14.00">&quot;consectetur / ε&quot;</text>
</g>
<!-- 4 -->
<g id="node5" class="node">
<title>4</title>
<ellipse fill="none" stroke="black" cx="552.51" cy="-123.76" rx="18" ry="18"/>
<ellipse fill="none" stroke="black" cx="552.51" cy="-123.76" rx="22" ry="22"/>
<text text-anchor="middle" x="552.51" y="-119.56" font-family="Times,serif" font-size="14.00">4</text>
</g>
<!-- 0&#45;&gt;4 -->
<g id="edge8" class="edge">
<title>0&#45;&gt;4</title>
<path fill="none" stroke="black" d="M35.96,-254.29C60.44,-256.19 107.02,-258.61 146.28,-253.76 312.84,-233.16 365.98,-243.58 512.51,-161.76 518.95,-158.16 525.08,-153.24 530.49,-148.12"/>
<polygon fill="black" stroke="black" points="533.35,-150.21 537.87,-140.62 528.36,-145.3 533.35,-150.21"/>
<text text-anchor="middle" x="261.32" y="-248.56" font-family="Times,serif" font-size="14.00">&quot;adipiscing / ε&quot;</text>
</g>
<!-- 5 -->
<g id="node6" class="node">
<title>5</title>
<ellipse fill="none" stroke="black" cx="964.45" cy="-386.76" rx="18" ry="18"/>
<ellipse fill="none" stroke="black" cx="964.45" cy="-386.76" rx="22" ry="22"/>
<text text-anchor="middle" x="964.45" y="-382.56" font-family="Times,serif" font-size="14.00">5</text>
</g>
<!-- 1&#45;&gt;5 -->
<g id="edge9" class="edge">
<title>1&#45;&gt;5</title>
<path fill="none" stroke="black" d="M791.67,-357.1C818.92,-348.66 874.75,-335.35 918.58,-350.76 926.66,-353.6 934.36,-358.58 941.03,-363.94"/>
<polygon fill="black" stroke="black" points="939.05,-366.86 948.88,-370.81 943.66,-361.59 939.05,-366.86"/>
<text text-anchor="middle" x="872.44" y="-353.56" font-family="Times,serif" font-size="14.00">&quot;dolore / ε&quot;</text>
</g>
<!-- 1&#45;&gt;5 -->
<g id="edge10" class="edge">
<title>1&#45;&gt;5</title>
<path fill="none" stroke="black" d="M787.77,-350.13C797.4,-341.41 811.5,-330.55 826.3,-325.76 865.31,-313.11 881.98,-307.24 918.58,-325.76 932.04,-332.56 942.45,-345.53 949.83,-357.76"/>
<polygon fill="black" stroke="black" points="946.97,-359.81 954.9,-366.85 953.09,-356.41 946.97,-359.81"/>
<text text-anchor="middle" x="872.44" y="-328.56" font-family="Times,serif" font-size="14.00">&quot;labore / ε&quot;</text>
</g>
<!-- 1&#45;&gt;5 -->
<g id="edge11" class="edge">
<title>1&#45;&gt;5</title>
<path fill="none" stroke="black" d="M787.24,-375.66C796.81,-384.91 811.07,-396.61 826.3,-401.76 865.15,-414.89 878.1,-408.34 918.58,-401.76 923.71,-400.92 929.06,-399.58 934.19,-398.03"/>
<polygon fill="black" stroke="black" points="935.3,-401.35 943.69,-394.89 933.1,-394.71 935.3,-401.35"/>
<text text-anchor="middle" x="872.44" y="-411.56" font-family="Times,serif" font-size="14.00">&quot;incididunt / ε&quot;</text>
</g>
<!-- 1&#45;&gt;5 -->
<g id="edge12" class="edge">
<title>1&#45;&gt;5</title>
<path fill="none" stroke="black" d="M792.24,-364.93C823.89,-368.96 892.19,-377.67 932.3,-382.78"/>
<polygon fill="black" stroke="black" points="931.97,-386.27 942.33,-384.06 932.85,-379.33 931.97,-386.27"/>
<text text-anchor="middle" x="872.44" y="-383.56" font-family="Times,serif" font-size="14.00">&quot;consectetur / ε&quot;</text>
</g>
<!-- 3&#45;&gt;4 -->
<g id="edge13" class="edge">
<title>3&#45;&gt;4</title>
<path fill="none" stroke="black" d="M200.36,-167.18C249.58,-168.02 395.68,-167.8 512.51,-139.76 515.96,-138.93 519.5,-137.84 522.98,-136.62"/>
<polygon fill="black" stroke="black" points="524.41,-139.82 532.46,-132.94 521.87,-133.29 524.41,-139.82"/>
<text text-anchor="middle" x="365.4" y="-167.56" font-family="Times,serif" font-size="14.00">&quot;adipiscing / ε&quot;</text>
</g>
<!-- 6 -->
<g id="node7" class="node">
<title>6</title>
<ellipse fill="none" stroke="black" cx="365.4" cy="-113.76" rx="18" ry="18"/>
<text text-anchor="middle" x="365.4" y="-109.56" font-family="Times,serif" font-size="14.00">6</text>
</g>
<!-- 3&#45;&gt;6 -->
<g id="edge14" class="edge">
<title>3&#45;&gt;6</title>
<path fill="none" stroke="black" d="M195.93,-154.59C202.19,-149.24 210.14,-143.36 218.28,-139.76 257.1,-122.58 306.48,-116.74 336.74,-114.76"/>
<polygon fill="black" stroke="black" points="337.18,-118.24 346.97,-114.19 336.79,-111.25 337.18,-118.24"/>
<text text-anchor="middle" x="261.32" y="-142.56" font-family="Times,serif" font-size="14.00">&quot;tempor / ε&quot;</text>
</g>
<!-- 7 -->
<g id="node8" class="node">
<title>7</title>
<ellipse fill="none" stroke="black" cx="774.2" cy="-61.76" rx="18" ry="18"/>
<ellipse fill="none" stroke="black" cx="774.2" cy="-61.76" rx="22" ry="22"/>
<text text-anchor="middle" x="774.2" y="-57.56" font-family="Times,serif" font-size="14.00">7</text>
</g>
<!-- 4&#45;&gt;7 -->
<g id="edge15" class="edge">
<title>4&#45;&gt;7</title>
<path fill="none" stroke="black" d="M569.62,-109.76C576.31,-104.63 584.39,-99.23 592.51,-95.76 642.06,-74.55 704.84,-66.53 741.86,-63.52"/>
<polygon fill="black" stroke="black" points="742.31,-67 752.03,-62.77 741.79,-60.02 742.31,-67"/>
<text text-anchor="middle" x="657.31" y="-98.56" font-family="Times,serif" font-size="14.00">&quot;eiusmod / ε&quot;</text>
</g>
<!-- 8 -->
<g id="node9" class="node">
<title>8</title>
<ellipse fill="none" stroke="black" cx="964.45" cy="-94.76" rx="18" ry="18"/>
<text text-anchor="middle" x="964.45" y="-90.56" font-family="Times,serif" font-size="14.00">8</text>
</g>
<!-- 4&#45;&gt;8 -->
<g id="edge16" class="edge">
<title>4&#45;&gt;8</title>
<path fill="none" stroke="black" d="M573.01,-132.12C579.14,-134.38 586.01,-136.53 592.51,-137.76 734.93,-164.54 785.11,-194.21 918.58,-137.76 929.27,-133.23 938.9,-124.91 946.47,-116.79"/>
<polygon fill="black" stroke="black" points="949.16,-119.04 953.07,-109.19 943.87,-114.45 949.16,-119.04"/>
<text text-anchor="middle" x="774.2" y="-173.56" font-family="Times,serif" font-size="14.00">&quot;tempor / ε&quot;</text>
</g>
<!-- 4&#45;&gt;8 -->
<g id="edge17" class="edge">
<title>4&#45;&gt;8</title>
<path fill="none" stroke="black" d="M574.66,-124.35C630.97,-125.59 789.11,-126.84 918.58,-106.76 924.7,-105.8 931.19,-104.34 937.28,-102.76"/>
<polygon fill="black" stroke="black" points="938.31,-106.11 947.01,-100.06 936.43,-99.37 938.31,-106.11"/>
<text text-anchor="middle" x="774.2" y="-125.56" font-family="Times,serif" font-size="14.00">&quot;sit / ε&quot;</text>
</g>
<!-- 9 -->
<g id="node10" class="node">
<title>9</title>
<ellipse fill="none" stroke="black" cx="1143.81" cy="-24.76" rx="18" ry="18"/>
<ellipse fill="none" stroke="black" cx="1143.81" cy="-24.76" rx="22" ry="22"/>
<text text-anchor="middle" x="1143.81" y="-20.56" font-family="Times,serif" font-size="14.00">9</text>
</g>
<!-- 4&#45;&gt;9 -->
<g id="edge18" class="edge">
<title>4&#45;&gt;9</title>
<path fill="none" stroke="black" d="M561.28,-103.37C567.61,-89.52 577.9,-71.93 592.51,-61.76 647.52,-23.46 674.21,-43.02 740.11,-30.76 778.26,-23.65 787.61,-19.88 826.3,-16.76 938.05,-7.74 966.47,-17.39 1078.5,-21.76 1089.31,-22.18 1101.13,-22.71 1111.66,-23.21"/>
<polygon fill="black" stroke="black" points="1111.51,-26.7 1121.67,-23.69 1111.85,-19.71 1111.51,-26.7"/>
<text text-anchor="middle" x="872.44" y="-19.56" font-family="Times,serif" font-size="14.00">&quot;amet / ε&quot;</text>
</g>
<!-- 5&#45;&gt;2 -->
<g id="edge19" class="edge">
<title>5&#45;&gt;2</title>
<path fill="none" stroke="black" d="M967.16,-408.65C970.54,-435.32 980.56,-479.47 1010.32,-500.76 1075.68,-547.53 1111.78,-517.63 1191.11,-504.76 1199.44,-503.4 1200.95,-500.88 1209.11,-498.76 1247,-488.89 1291.45,-481.03 1320.42,-476.39"/>
<polygon fill="black" stroke="black" points="1321.02,-479.84 1330.36,-474.83 1319.93,-472.92 1321.02,-479.84"/>
<text text-anchor="middle" x="1143.81" y="-527.56" font-family="Times,serif" font-size="14.00">&quot;adipiscing / ε&quot;</text>
</g>
<!-- 5&#45;&gt;2 -->
<g id="edge24" class="edge">
<title>5&#45;&gt;2</title>
<path fill="none" stroke="black" d="M973.75,-407C981.03,-421.89 993.15,-441.14 1010.32,-450.76 1036.88,-465.63 1240.19,-470.15 1319.62,-471.36"/>
<polygon fill="black" stroke="black" points="1319.92,-474.87 1329.97,-471.51 1320.02,-467.87 1319.92,-474.87"/>
<text text-anchor="middle" x="1143.81" y="-470.56" font-family="Times,serif" font-size="14.00">&quot;sitdeserunt / ε&quot;</text>
</g>
<!-- 5&#45;&gt;2 -->
<g id="edge25" class="edge">
<title>5&#45;&gt;2</title>
<path fill="none" stroke="black" d="M985.43,-393.45C993.16,-395.91 1002.1,-398.62 1010.32,-400.76 1069.58,-416.13 1248.49,-451.62 1320.62,-465.77"/>
<polygon fill="black" stroke="black" points="1319.98,-469.21 1330.47,-467.7 1321.33,-462.34 1319.98,-469.21"/>
<text text-anchor="middle" x="1143.81" y="-441.56" font-family="Times,serif" font-size="14.00">&quot;sitmollit / ε&quot;</text>
</g>
<!-- 5&#45;&gt;2 -->
<g id="edge26" class="edge">
<title>5&#45;&gt;2</title>
<path fill="none" stroke="black" d="M986.51,-385.25C1043.05,-382.15 1201.35,-379.8 1312.27,-439.76 1317.7,-442.69 1323.09,-446.43 1328.06,-450.32"/>
<polygon fill="black" stroke="black" points="1326.02,-453.18 1335.95,-456.87 1330.5,-447.79 1326.02,-453.18"/>
<text text-anchor="middle" x="1143.81" y="-399.56" font-family="Times,serif" font-size="14.00">&quot;culpa / ε&quot;</text>
</g>
<!-- 5&#45;&gt;2 -->
<g id="edge27" class="edge">
<title>5&#45;&gt;2</title>
<path fill="none" stroke="black" d="M986.04,-382.15C1025.79,-373.89 1115.83,-358.28 1191.11,-367.76 1246.26,-374.7 1268.54,-364.44 1312.27,-398.76 1325.99,-409.52 1335.47,-426.5 1341.64,-441.37"/>
<polygon fill="black" stroke="black" points="1338.39,-442.66 1345.23,-450.75 1344.93,-440.16 1338.39,-442.66"/>
<text text-anchor="middle" x="1143.81" y="-370.56" font-family="Times,serif" font-size="14.00">&quot;sitproident / ε&quot;</text>
</g>
<!-- 5&#45;&gt;2 -->
<g id="edge28" class="edge">
<title>5&#45;&gt;2</title>
<path fill="none" stroke="black" d="M983.71,-375.93C991.66,-371.6 1001.22,-366.91 1010.32,-363.76 1047.2,-350.95 1057.64,-350.55 1096.5,-346.76 1192.28,-337.4 1237.71,-303.92 1312.27,-364.76 1334.55,-382.94 1344.1,-415.01 1348.2,-439.31"/>
<polygon fill="black" stroke="black" points="1344.78,-440.13 1349.68,-449.52 1351.71,-439.12 1344.78,-440.13"/>
<text text-anchor="middle" x="1143.81" y="-349.56" font-family="Times,serif" font-size="14.00">&quot;ullamco / ε&quot;</text>
</g>
<!-- 5&#45;&gt;2 -->
<g id="edge29" class="edge">
<title>5&#45;&gt;2</title>
<path fill="none" stroke="black" d="M979.5,-370.64C987.76,-361.99 998.81,-351.71 1010.32,-344.76 1045.03,-323.77 1056.51,-321.52 1096.5,-314.76 1191.18,-298.75 1238.84,-263.89 1312.27,-325.76 1329.55,-340.32 1341.24,-401.42 1347.03,-439.81"/>
<polygon fill="black" stroke="black" points="1343.61,-440.59 1348.51,-449.98 1350.53,-439.58 1343.61,-440.59"/>
<text text-anchor="middle" x="1143.81" y="-317.56" font-family="Times,serif" font-size="14.00">&quot;sitofficia / ε&quot;</text>
</g>
<!-- 5&#45;&gt;2 -->
<g id="edge30" class="edge">
<title>5&#45;&gt;2</title>
<path fill="none" stroke="black" d="M973.87,-366.75C981.42,-350.87 993.85,-329.04 1010.32,-314.76 1041.94,-287.33 1055.54,-285.39 1096.5,-276.76 1190.44,-256.97 1240.27,-223.26 1312.27,-286.76 1334.75,-306.59 1345.01,-392.32 1349.04,-439.8"/>
<polygon fill="black" stroke="black" points="1345.56,-440.19 1349.85,-449.88 1352.53,-439.63 1345.56,-440.19"/>
<text text-anchor="middle" x="1143.81" y="-279.56" font-family="Times,serif" font-size="14.00">&quot;exercitation / ε&quot;</text>
</g>
<!-- 5&#45;&gt;2 -->
<g id="edge31" class="edge">
<title>5&#45;&gt;2</title>
<path fill="none" stroke="black" d="M969.32,-365.15C974.69,-340.9 986.54,-301.68 1010.32,-276.76 1103.4,-179.17 1212.75,-155.74 1312.27,-246.76 1340.03,-272.14 1348.06,-383.53 1350.36,-439.47"/>
<polygon fill="black" stroke="black" points="1346.87,-439.69 1350.74,-449.55 1353.86,-439.43 1346.87,-439.69"/>
<text text-anchor="middle" x="1143.81" y="-213.56" font-family="Times,serif" font-size="14.00">&quot;sitnostrud / ε&quot;</text>
</g>
<!-- 5&#45;&gt;2 -->
<g id="edge32" class="edge">
<title>5&#45;&gt;2</title>
<path fill="none" stroke="black" d="M965.87,-364.56C967.62,-329.69 975.63,-261.54 1010.32,-217.76 1094.04,-112.08 1217.05,-93.31 1312.27,-188.76 1346.77,-223.35 1351.27,-372.33 1351.51,-439.13"/>
<polygon fill="black" stroke="black" points="1348.01,-439.49 1351.51,-449.49 1355.01,-439.49 1348.01,-439.49"/>
<text text-anchor="middle" x="1143.81" y="-148.56" font-family="Times,serif" font-size="14.00">&quot;veniam / ε&quot;</text>
</g>
<!-- 10 -->
<g id="node11" class="node">
<title>10</title>
<ellipse fill="none" stroke="black" cx="1143.81" cy="-702.76" rx="18.9" ry="18.9"/>
<text text-anchor="middle" x="1143.81" y="-698.56" font-family="Times,serif" font-size="14.00">10</text>
</g>
<!-- 5&#45;&gt;10 -->
<g id="edge20" class="edge">
<title>5&#45;&gt;10</title>
<path fill="none" stroke="black" d="M965.87,-408.94C967.49,-468.96 975.11,-632.6 1010.32,-670.76 1036.76,-699.41 1084.05,-704.43 1114.39,-704.38"/>
<polygon fill="black" stroke="black" points="1114.81,-707.87 1124.74,-704.16 1114.67,-700.87 1114.81,-707.87"/>
<text text-anchor="middle" x="1044.41" y="-704.56" font-family="Times,serif" font-size="14.00">&quot;tempor / ε&quot;</text>
</g>
<!-- 5&#45;&gt;10 -->
<g id="edge21" class="edge">
<title>5&#45;&gt;10</title>
<path fill="none" stroke="black" d="M967.14,-408.81C971.5,-460.52 984.61,-587.69 1010.32,-620.76 1030.86,-647.19 1049.96,-635.26 1078.5,-652.76 1093.59,-662 1109.29,-674.15 1121.4,-684.16"/>
<polygon fill="black" stroke="black" points="1119.25,-686.93 1129.16,-690.69 1123.76,-681.57 1119.25,-686.93"/>
<text text-anchor="middle" x="1044.41" y="-655.56" font-family="Times,serif" font-size="14.00">&quot;sit / ε&quot;</text>
</g>
<!-- 11 -->
<g id="node12" class="node">
<title>11</title>
<ellipse fill="none" stroke="black" cx="1143.81" cy="-590.76" rx="18.75" ry="18.75"/>
<text text-anchor="middle" x="1143.81" y="-586.56" font-family="Times,serif" font-size="14.00">11</text>
</g>
<!-- 5&#45;&gt;11 -->
<g id="edge22" class="edge">
<title>5&#45;&gt;11</title>
<path fill="none" stroke="black" d="M967.16,-408.84C971.28,-455.63 983.48,-562.31 1010.32,-584.76 1039.57,-609.23 1086.44,-604.54 1115.88,-598.18"/>
<polygon fill="black" stroke="black" points="1116.95,-601.53 1125.88,-595.82 1115.34,-594.72 1116.95,-601.53"/>
<text text-anchor="middle" x="1044.41" y="-605.56" font-family="Times,serif" font-size="14.00">&quot;et / ε&quot;</text>
</g>
<!-- 5&#45;&gt;11 -->
<g id="edge23" class="edge">
<title>5&#45;&gt;11</title>
<path fill="none" stroke="black" d="M965.14,-408.84C965.9,-443.35 972.56,-510 1010.32,-547.76 1032.56,-570 1048.59,-557.02 1078.5,-566.76 1091.21,-570.89 1105.13,-576.01 1116.75,-580.45"/>
<polygon fill="black" stroke="black" points="1115.7,-583.8 1126.29,-584.15 1118.23,-577.27 1115.7,-583.8"/>
<text text-anchor="middle" x="1044.41" y="-569.56" font-family="Times,serif" font-size="14.00">&quot;ut / ε&quot;</text>
</g>
<!-- 6&#45;&gt;4 -->
<g id="edge33" class="edge">
<title>6&#45;&gt;4</title>
<path fill="none" stroke="black" d="M383.48,-114.68C414.55,-116.36 480.74,-119.93 520.14,-122.06"/>
<polygon fill="black" stroke="black" points="520.08,-125.56 530.25,-122.61 520.46,-118.57 520.08,-125.56"/>
<text text-anchor="middle" x="469.47" y="-124.56" font-family="Times,serif" font-size="14.00">&quot;adipiscing / ε&quot;</text>
</g>
<!-- 7&#45;&gt;8 -->
<g id="edge34" class="edge">
<title>7&#45;&gt;8</title>
<path fill="none" stroke="black" d="M795.86,-56.9C824.38,-51.17 877,-44.14 918.58,-58.76 928.12,-62.11 937.14,-68.45 944.56,-74.89"/>
<polygon fill="black" stroke="black" points="942.23,-77.5 951.92,-81.77 947.01,-72.39 942.23,-77.5"/>
<text text-anchor="middle" x="872.44" y="-61.56" font-family="Times,serif" font-size="14.00">&quot;tempor / ε&quot;</text>
</g>
<!-- 7&#45;&gt;8 -->
<g id="edge35" class="edge">
<title>7&#45;&gt;8</title>
<path fill="none" stroke="black" d="M796.03,-66.5C805.28,-68.54 816.31,-70.88 826.3,-72.76 864.38,-79.9 908.68,-86.75 936.4,-90.85"/>
<polygon fill="black" stroke="black" points="936.1,-94.34 946.5,-92.33 937.12,-87.42 936.1,-94.34"/>
<text text-anchor="middle" x="872.44" y="-91.56" font-family="Times,serif" font-size="14.00">&quot;sit / ε&quot;</text>
</g>
<!-- 7&#45;&gt;9 -->
<g id="edge36" class="edge">
<title>7&#45;&gt;9</title>
<path fill="none" stroke="black" d="M795.35,-54.75C804.66,-51.79 815.92,-48.62 826.3,-46.76 929.44,-28.26 1054.07,-25.1 1111.3,-24.7"/>
<polygon fill="black" stroke="black" points="1111.52,-28.2 1121.5,-24.66 1111.49,-21.2 1111.52,-28.2"/>
<text text-anchor="middle" x="964.45" y="-35.56" font-family="Times,serif" font-size="14.00">&quot;amet / ε&quot;</text>
</g>
<!-- 8&#45;&gt;9 -->
<g id="edge37" class="edge">
<title>8&#45;&gt;9</title>
<path fill="none" stroke="black" d="M977.77,-82.44C986.26,-74.61 998.17,-64.83 1010.32,-58.76 1028,-49.91 1078.71,-38.19 1112.02,-31.08"/>
<polygon fill="black" stroke="black" points="1113.1,-34.43 1122.16,-28.94 1111.65,-27.58 1113.1,-34.43"/>
<text text-anchor="middle" x="1044.41" y="-61.56" font-family="Times,serif" font-size="14.00">&quot;amet / ε&quot;</text>
</g>
<!-- 9&#45;&gt;2 -->
<g id="edge38" class="edge">
<title>9&#45;&gt;2</title>
<path fill="none" stroke="black" d="M1164.34,-16.81C1199.03,-4.15 1271.55,15.59 1312.27,-21.76 1342.94,-49.88 1349.56,-340.82 1350.93,-439.34"/>
<polygon fill="black" stroke="black" points="1347.43,-439.63 1351.06,-449.59 1354.43,-439.54 1347.43,-439.63"/>
<text text-anchor="middle" x="1260.69" y="-24.56" font-family="Times,serif" font-size="14.00">&quot;et / ε&quot;</text>
</g>
<!-- 9&#45;&gt;2 -->
<g id="edge39" class="edge">
<title>9&#45;&gt;2</title>
<path fill="none" stroke="black" d="M1165.61,-28.3C1209.38,-35.85 1307.35,-53.28 1312.27,-58.76 1337.57,-86.9 1347.61,-347.21 1350.4,-439.5"/>
<polygon fill="black" stroke="black" points="1346.9,-439.76 1350.7,-449.65 1353.9,-439.55 1346.9,-439.76"/>
<text text-anchor="middle" x="1260.69" y="-61.56" font-family="Times,serif" font-size="14.00">&quot;ut / ε&quot;</text>
</g>
<!-- 10&#45;&gt;2 -->
<g id="edge40" class="edge">
<title>10&#45;&gt;2</title>
<path fill="none" stroke="black" d="M1160.92,-710.96C1193.71,-726.38 1268.76,-754.91 1312.27,-717.76 1343.99,-690.67 1350.05,-564.71 1351.11,-504.27"/>
<polygon fill="black" stroke="black" points="1354.61,-504.18 1351.25,-494.13 1347.61,-504.08 1354.61,-504.18"/>
<text text-anchor="middle" x="1260.69" y="-738.56" font-family="Times,serif" font-size="14.00">&quot;adipiscing / ε&quot;</text>
</g>
<!-- 10&#45;&gt;2 -->
<g id="edge41" class="edge">
<title>10&#45;&gt;2</title>
<path fill="none" stroke="black" d="M1162.89,-701.57C1203.95,-698.71 1301.55,-690.92 1312.27,-680.76 1337.33,-657 1346.59,-556.32 1349.76,-503.85"/>
<polygon fill="black" stroke="black" points="1353.26,-503.92 1350.33,-493.74 1346.27,-503.53 1353.26,-503.92"/>
<text text-anchor="middle" x="1260.69" y="-699.56" font-family="Times,serif" font-size="14.00">&quot;culpa / ε&quot;</text>
</g>
<!-- 10&#45;&gt;2 -->
<g id="edge42" class="edge">
<title>10&#45;&gt;2</title>
<path fill="none" stroke="black" d="M1159.35,-691.65C1171.89,-682.6 1190.82,-670.13 1209.11,-662.76 1252.59,-645.22 1278.85,-673.63 1312.27,-640.76 1331.41,-621.93 1342.8,-547.35 1347.96,-503.81"/>
<polygon fill="black" stroke="black" points="1351.45,-504.05 1349.11,-493.72 1344.5,-503.26 1351.45,-504.05"/>
<text text-anchor="middle" x="1260.69" y="-665.56" font-family="Times,serif" font-size="14.00">&quot;ullamco / ε&quot;</text>
</g>
<!-- 10&#45;&gt;2 -->
<g id="edge43" class="edge">
<title>10&#45;&gt;2</title>
<path fill="none" stroke="black" d="M1151.61,-720.39C1160.93,-741.79 1179.92,-776.83 1209.11,-791.76 1249.94,-812.62 1277.94,-822.15 1312.27,-791.76 1333.58,-772.89 1345.65,-581.93 1349.71,-504.31"/>
<polygon fill="black" stroke="black" points="1353.21,-504.3 1350.22,-494.14 1346.22,-503.94 1353.21,-504.3"/>
<text text-anchor="middle" x="1260.69" y="-813.56" font-family="Times,serif" font-size="14.00">&quot;exercitation / ε&quot;</text>
</g>
<!-- 10&#45;&gt;2 -->
<g id="edge44" class="edge">
<title>10&#45;&gt;2</title>
<path fill="none" stroke="black" d="M1156.97,-716.67C1168.84,-729.1 1188.12,-746.44 1209.11,-753.76 1252.41,-768.84 1277.7,-783.87 1312.27,-753.76 1349.07,-721.69 1352.3,-571.25 1351.85,-504.18"/>
<polygon fill="black" stroke="black" points="1355.35,-503.75 1351.75,-493.78 1348.35,-503.82 1355.35,-503.75"/>
<text text-anchor="middle" x="1260.69" y="-773.56" font-family="Times,serif" font-size="14.00">&quot;veniam / ε&quot;</text>
</g>
<!-- 11&#45;&gt;2 -->
<g id="edge45" class="edge">
<title>11&#45;&gt;2</title>
<path fill="none" stroke="black" d="M1159.83,-581.01C1172.51,-573.17 1191.38,-562.41 1209.11,-555.76 1253.09,-539.26 1273.78,-559.69 1312.27,-532.76 1323.56,-524.85 1332.34,-512.52 1338.68,-501.01"/>
<polygon fill="black" stroke="black" points="1341.82,-502.55 1343.24,-492.06 1335.58,-499.37 1341.82,-502.55"/>
<text text-anchor="middle" x="1260.69" y="-558.56" font-family="Times,serif" font-size="14.00">&quot;velit / ε&quot;</text>
</g>
<!-- 11&#45;&gt;2 -->
<g id="edge46" class="edge">
<title>11&#45;&gt;2</title>
<path fill="none" stroke="black" d="M1160.15,-581.62C1170.02,-575.12 1182.55,-565.64 1191.11,-554.76 1203.16,-539.43 1193.77,-526.79 1209.11,-514.76 1245.8,-485.99 1268.75,-512.48 1312.27,-495.76 1316.64,-494.07 1321.07,-491.89 1325.3,-489.53"/>
<polygon fill="black" stroke="black" points="1327.37,-492.37 1334.13,-484.2 1323.76,-486.38 1327.37,-492.37"/>
<text text-anchor="middle" x="1260.69" y="-517.56" font-family="Times,serif" font-size="14.00">&quot;voluptate / ε&quot;</text>
</g>
<!-- 11&#45;&gt;2 -->
<g id="edge47" class="edge">
<title>11&#45;&gt;2</title>
<path fill="none" stroke="black" d="M1160.8,-598.76C1193.04,-613.64 1266.63,-641.07 1312.27,-606.76 1328.77,-594.34 1340.5,-539.31 1346.56,-503.46"/>
<polygon fill="black" stroke="black" points="1350.03,-503.89 1348.18,-493.46 1343.12,-502.77 1350.03,-503.89"/>
<text text-anchor="middle" x="1260.69" y="-625.56" font-family="Times,serif" font-size="14.00">&quot;reprehenderit / ε&quot;</text>
</g>
<!-- 11&#45;&gt;2 -->
<g id="edge48" class="edge">
<title>11&#45;&gt;2</title>
<path fill="none" stroke="black" d="M1162.46,-589.55C1203.07,-586.65 1300.56,-578.81 1312.27,-569.76 1332.77,-553.89 1342.53,-525.6 1347.15,-503.48"/>
<polygon fill="black" stroke="black" points="1350.62,-503.98 1348.98,-493.51 1343.73,-502.71 1350.62,-503.98"/>
<text text-anchor="middle" x="1260.69" y="-587.56" font-family="Times,serif" font-size="14.00">&quot;commodo / ε&quot;</text>
</g>
</g>
</svg>
